<?xml version="1.0" encoding="UTF-8"?>
<svg xmlns="http://www.w3.org/2000/svg" width="227" height="33" viewBox="0 0 227 33" fill="none">
  <path d="M15.7072 10.1748L23.0957 21.5874H7.78638L15.7072 10.1748ZM2.22255 2.22811H29.5855V21.5874H25.746L15.7723 6.18103L11.9097 11.7445V6.57687H9.68579V14.9479L3.53001 23.8141H24.5376L28.6514 30.1693H2.22255V2.22811ZM0 0V32.3974H32.7435L27.1878 23.8141H31.8094V0H0Z" fill="#42454C"></path>
  <path d="M42.3691 8.88239C42.3691 5.20288 45.0139 2.5354 48.7218 2.5354C50.5764 2.5354 51.9613 3.09447 53.3285 4.33775L52.2314 5.78099C51.3489 4.97027 50.2696 4.46561 48.7747 4.46561C46.2739 4.46561 44.5469 6.30469 44.5469 8.88239C44.5469 11.4601 46.2196 13.3359 48.7041 13.3359C50.2696 13.3359 51.4576 12.668 52.2681 11.6056L53.5986 12.9754C52.4107 14.4363 50.7556 15.2661 48.6675 15.2661C44.8877 15.2661 42.3691 12.4177 42.3691 8.88375" fill="#42454C"></path>
  <path d="M64.9432 8.88239C64.9432 6.34006 63.3058 4.46561 60.733 4.46561C58.1602 4.46561 56.5404 6.34142 56.5404 8.88239C56.5404 11.4234 58.1792 13.3359 60.733 13.3359C63.3072 13.3359 64.9432 11.3526 64.9432 8.88239ZM54.3613 8.88239C54.3613 5.20288 56.9885 2.5354 60.733 2.5354C64.4775 2.5354 67.1033 5.20288 67.1033 8.88239C67.1033 12.5619 64.5128 15.2661 60.733 15.2661C56.9898 15.2661 54.3613 12.4708 54.3613 8.88239Z" fill="#42454C"></path>
  <path d="M82.4064 15.0322H80.3196L79.3475 8.39684C79.2932 7.96563 79.2402 7.56844 79.2022 7.15356C78.9877 7.55075 78.7352 7.92891 78.4826 8.30842L75.6926 12.5633H75.2622L72.4898 8.30842C72.2196 7.93027 71.9684 7.53307 71.7349 7.11819C71.7159 7.58748 71.6453 7.98332 71.5896 8.41588L70.6555 15.0336H68.5674L70.3677 2.68237H70.9977L74.6865 8.34379C74.9567 8.75867 75.2255 9.19123 75.478 9.62379C75.7306 9.19123 76.0008 8.75867 76.2696 8.34379L79.9775 2.68237H80.6074L82.4064 15.0336V15.0322Z" fill="#42454C"></path>
  <path d="M84.6621 2.771H92.3114V4.73658H86.7869V8.27054H91.7343V10.1817H86.7869V15.0324H84.6621V2.771Z" fill="#42454C"></path>
  <path d="M104.194 8.88239C104.194 6.34006 102.557 4.46561 99.9826 4.46561C97.4084 4.46561 95.79 6.34142 95.79 8.88239C95.79 11.4234 97.4288 13.3359 99.9826 13.3359C102.557 13.3359 104.194 11.3526 104.194 8.88239ZM93.6123 8.88239C93.6123 5.20288 96.2394 2.5354 99.9826 2.5354C103.726 2.5354 106.354 5.20288 106.354 8.88239C106.354 12.5619 103.764 15.2661 99.9826 15.2661C96.2394 15.2661 93.6123 12.4708 93.6123 8.88239Z" fill="#42454C"></path>
  <path d="M113.274 8.61308C114.677 8.61308 115.506 7.83773 115.506 6.62982C115.506 5.4219 114.623 4.60983 113.31 4.60983H110.809V8.61308H113.274ZM117.952 14.9777V15.0322H115.541L112.663 10.3801H110.809V15.0322H108.685V2.77075H113.489C115.92 2.77075 117.647 4.41259 117.647 6.59309C117.647 8.30566 116.569 9.64008 114.821 10.1461L117.952 14.9777Z" fill="#42454C"></path>
  <path d="M127.642 4.73658H124.187V15.031H122.063V4.73658H118.589V2.771H127.642V4.73658Z" fill="#42454C"></path>
  <path d="M143.45 8.16305V13.0124C142.243 14.4733 140.497 15.2663 138.373 15.2663C134.612 15.2663 132.021 12.5254 132.021 8.88263C132.021 5.23985 134.505 2.53564 138.41 2.53564C140.37 2.53564 141.953 3.27563 143.143 4.50122L141.972 5.90638C140.983 4.93379 139.886 4.44681 138.482 4.44681C135.855 4.44681 134.181 6.30357 134.181 8.90031C134.181 11.4971 135.962 13.3715 138.554 13.3715C139.761 13.3715 140.803 12.9757 141.56 12.2003V9.92867H138.285V8.16169H143.451L143.45 8.16305Z" fill="#42454C"></path>
  <path d="M150.458 8.61357C151.862 8.61357 152.69 7.83822 152.69 6.63031C152.69 5.42239 151.808 4.61032 150.495 4.61032H147.994V8.61357H150.458ZM155.137 14.9782V15.0326H152.725L149.847 10.3805H147.994V15.0326H145.869V2.77124H150.674C153.104 2.77124 154.831 4.41308 154.831 6.59358C154.831 8.30615 153.753 9.64057 152.006 10.1466L155.137 14.9782Z" fill="#42454C"></path>
  <path d="M166.931 8.88263C166.931 6.3403 165.293 4.46586 162.719 4.46586C160.145 4.46586 158.526 6.34166 158.526 8.88263C158.526 11.4236 160.165 13.3361 162.719 13.3361C165.293 13.3361 166.931 11.3529 166.931 8.88263ZM156.349 8.88263C156.349 5.20312 158.976 2.53564 162.719 2.53564C166.462 2.53564 169.091 5.20312 169.091 8.88263C169.091 12.5621 166.5 15.2663 162.719 15.2663C158.977 15.2663 156.349 12.471 156.349 8.88263Z" fill="#42454C"></path>
  <path d="M171.241 10.6864V2.771H173.365V10.5422C173.365 12.4166 174.479 13.3375 176.153 13.3375C177.827 13.3375 178.926 12.4166 178.926 10.5422V2.771H181.049V10.6864C181.049 13.6259 178.979 15.2664 176.153 15.2664C173.31 15.2664 171.243 13.6259 171.243 10.6864" fill="#42454C"></path>
  <path d="M188.289 8.73983C189.836 8.73983 190.52 7.7482 190.52 6.70216C190.52 5.54729 189.692 4.62775 188.342 4.62775H185.987V8.73983H188.291H188.289ZM183.86 2.771H188.558C191.185 2.771 192.662 4.69985 192.662 6.71984C192.662 8.73983 191.222 10.5599 188.523 10.5599H185.987V15.0324H183.862V2.771H183.86Z" fill="#42454C"></path>
  <path d="M42.3691 29.9482H43.094V23.1386H47.3116V29.9482H48.0365V22.4796H42.3691V29.9482Z" fill="#42454C"></path>
  <path d="M52.5376 24.9948C51.7139 24.9948 51.0549 25.3462 50.6375 25.9064L50.4947 25.0936H49.9895V32.3645H50.6595V30.4534C50.6595 29.9701 50.6485 29.5198 50.6375 29.1464C51.0439 29.6956 51.7248 30.058 52.5266 30.058C53.9215 30.058 54.9319 28.9926 54.9319 27.4989C54.9319 26.0492 53.9215 24.9948 52.5376 24.9948ZM52.4827 29.432C51.4063 29.432 50.6265 28.6522 50.6265 27.4989C50.6265 26.3896 51.3953 25.6208 52.4827 25.6208C53.5261 25.6208 54.2619 26.4116 54.2619 27.5319C54.2619 28.6412 53.5261 29.432 52.4827 29.432Z" fill="#42454C"></path>
  <path d="M58.4597 30.069C59.9424 30.069 60.9858 29.0146 60.9858 27.5209C60.9858 26.0272 59.9424 24.9728 58.4597 24.9728C56.9989 24.9728 55.9555 26.0272 55.9555 27.5209C55.9555 29.0146 56.9989 30.069 58.4597 30.069ZM58.4597 29.443C57.3833 29.443 56.6365 28.6522 56.6365 27.5209C56.6365 26.4006 57.3833 25.5988 58.4597 25.5988C59.558 25.5988 60.3048 26.4006 60.3048 27.5209C60.3048 28.6522 59.547 29.443 58.4597 29.443Z" fill="#42454C"></path>
  <path d="M66.1787 25.0936L63.5427 27.9822C63.356 28.1909 63.1693 28.3996 62.9936 28.6192C63.0046 28.4105 63.0155 28.1909 63.0155 27.9712V25.0936H62.3456V29.9482H62.5872L65.3 26.9717C65.4648 26.796 65.6186 26.6093 65.7613 26.4226C65.7504 26.6093 65.7503 26.796 65.7503 26.9827V29.9482H66.4203V25.0936H66.1787Z" fill="#42454C"></path>
  <path d="M69.4445 30.036C70.5428 30.036 71.3006 29.4759 71.3006 28.5643C71.3006 28.0261 71.0041 27.5429 70.4 27.3781C70.8393 27.2134 71.07 26.796 71.07 26.3786C71.07 25.522 70.3341 25.0387 69.4115 25.0387C68.8624 25.0387 68.3462 25.1815 67.819 25.467L68.0716 26.0162C68.456 25.8075 68.9063 25.6647 69.3676 25.6647C70.0925 25.6647 70.4 26.0272 70.4 26.4116C70.4 26.829 70.1144 27.1145 69.5873 27.1145H68.6098V27.7296H69.6202C70.3231 27.7296 70.6307 28.0701 70.6307 28.5314C70.6307 29.0146 70.2682 29.41 69.4335 29.41C68.9173 29.41 68.4011 29.2892 67.8958 28.9377L67.5883 29.4759C68.0935 29.8164 68.6866 30.036 69.4445 30.036Z" fill="#42454C"></path>
  <path d="M75.6072 27.455C76.0246 27.2573 76.2772 26.9168 76.2772 26.3786C76.2772 25.5988 75.6841 25.0936 74.7505 25.0936H72.6637V29.9482H74.9373C75.8818 29.9482 76.5079 29.4649 76.5079 28.6192C76.5079 28.0042 76.1564 27.6088 75.6072 27.455ZM74.7396 25.6977C75.3436 25.6977 75.6072 26.0382 75.6072 26.4336C75.6072 26.8399 75.3436 27.1804 74.7396 27.1804H73.3337V25.6977H74.7396ZM74.9263 29.3441H73.3337V27.7845H74.9263C75.5523 27.7845 75.8379 28.125 75.8379 28.5643C75.8379 29.0146 75.5523 29.3441 74.9263 29.3441Z" fill="#42454C"></path>
  <path d="M79.9648 30.069C81.4475 30.069 82.4909 29.0146 82.4909 27.5209C82.4909 26.0272 81.4475 24.9728 79.9648 24.9728C78.5041 24.9728 77.4606 26.0272 77.4606 27.5209C77.4606 29.0146 78.5041 30.069 79.9648 30.069ZM79.9648 29.443C78.8885 29.443 78.1416 28.6522 78.1416 27.5209C78.1416 26.4006 78.8885 25.5988 79.9648 25.5988C81.0631 25.5988 81.81 26.4006 81.81 27.5209C81.81 28.6522 81.0521 29.443 79.9648 29.443Z" fill="#42454C"></path>
  <path d="M87.5883 29.3331V25.0936H84.3922L84.1396 27.6966C84.0737 28.3886 83.9859 28.8389 83.6783 29.3331H83.0413V31.2332H83.6893V29.9482H87.6323V31.2332H88.2803V29.3331H87.5883ZM84.9963 25.7197H86.9184V29.3331H84.4142C84.6448 28.8828 84.7217 28.4655 84.7876 27.8065L84.9963 25.7197Z" fill="#42454C"></path>
  <path d="M91.3642 30.069C92.2099 30.069 92.7371 29.8164 93.2424 29.3441L92.8689 28.8608C92.4735 29.2343 92.0781 29.443 91.4191 29.443C90.4087 29.443 89.6289 28.6741 89.6289 27.5099C89.6289 26.3677 90.4197 25.6098 91.4301 25.6098C92.0013 25.6098 92.3857 25.7636 92.7811 26.1041L93.1655 25.6428C92.6712 25.2034 92.1331 24.9838 91.4301 24.9838C90.1122 24.9838 88.9479 25.9064 88.9479 27.5099C88.9479 29.1794 90.1561 30.069 91.3642 30.069Z" fill="#42454C"></path>
  <path d="M95.2628 29.9482H95.9328V25.7087H97.4924V25.0936H93.7142V25.7087H95.2628V29.9482Z" fill="#42454C"></path>
  <path d="M101.51 27.455C101.927 27.2573 102.18 26.9168 102.18 26.3786C102.18 25.5988 101.587 25.0936 100.653 25.0936H98.5665V29.9482H100.84C101.785 29.9482 102.411 29.4649 102.411 28.6192C102.411 28.0042 102.059 27.6088 101.51 27.455ZM100.642 25.6977C101.246 25.6977 101.51 26.0382 101.51 26.4336C101.51 26.8399 101.246 27.1804 100.642 27.1804H99.2364V25.6977H100.642ZM100.829 29.3441H99.2364V27.7845H100.829C101.455 27.7845 101.741 28.125 101.741 28.5643C101.741 29.0146 101.455 29.3441 100.829 29.3441Z" fill="#42454C"></path>
  <path d="M105.868 30.069C107.35 30.069 108.394 29.0146 108.394 27.5209C108.394 26.0272 107.35 24.9728 105.868 24.9728C104.407 24.9728 103.363 26.0272 103.363 27.5209C103.363 29.0146 104.407 30.069 105.868 30.069ZM105.868 29.443C104.791 29.443 104.044 28.6522 104.044 27.5209C104.044 26.4006 104.791 25.5988 105.868 25.5988C106.966 25.5988 107.713 26.4006 107.713 27.5209C107.713 28.6522 106.955 29.443 105.868 29.443Z" fill="#42454C"></path>
  <path d="M117.085 25.0936H116.876L115.097 27.4001C114.998 27.5319 114.888 27.6637 114.79 27.8174C114.691 27.6637 114.581 27.5319 114.482 27.4001L112.692 25.0936H112.483L112.033 29.9482H112.692L112.955 27.1475C112.977 26.9168 112.999 26.7081 113.01 26.4775C113.164 26.6972 113.34 26.9278 113.516 27.1585L114.702 28.7181H114.867L116.108 27.0816C116.261 26.8729 116.415 26.6862 116.547 26.4885C116.558 26.6752 116.58 26.8729 116.602 27.0816L116.876 29.9482H117.546L117.085 25.0936Z" fill="#42454C"></path>
  <path d="M121.066 30.069C122.549 30.069 123.592 29.0146 123.592 27.5209C123.592 26.0272 122.549 24.9728 121.066 24.9728C119.605 24.9728 118.562 26.0272 118.562 27.5209C118.562 29.0146 119.605 30.069 121.066 30.069ZM121.066 29.443C119.99 29.443 119.243 28.6522 119.243 27.5209C119.243 26.4006 119.99 25.5988 121.066 25.5988C122.164 25.5988 122.911 26.4006 122.911 27.5209C122.911 28.6522 122.153 29.443 121.066 29.443Z" fill="#42454C"></path>
  <path d="M128.689 29.3331V25.0936H125.493L125.241 27.6966C125.175 28.3886 125.087 28.8389 124.779 29.3331H124.142V31.2332H124.79V29.9482H128.733V31.2332H129.381V29.3331H128.689ZM126.097 25.7197H128.019V29.3331H125.515C125.746 28.8828 125.823 28.4655 125.889 27.8065L126.097 25.7197Z" fill="#42454C"></path>
  <path d="M133.643 25.0936L132.589 27.7515C132.413 28.1909 132.237 28.6412 132.062 29.1903C131.864 28.6412 131.677 28.1909 131.479 27.7515L130.315 25.0936H129.612V25.1156L131.743 29.8713L131.677 30.0251C131.282 30.9916 130.952 31.6506 129.942 31.8373L130.074 32.3974C131.293 32.1558 131.776 31.4089 132.27 30.1898L134.346 25.1156V25.0936H133.643Z" fill="#42454C"></path>
  <path d="M134.213 30.0141C135.476 29.8493 135.96 29.2013 136.081 27.5978L136.234 25.7197H138.101V29.9482H138.771V25.0936H135.63L135.422 27.6527C135.334 28.729 135.048 29.3112 134.137 29.41L134.213 30.0141Z" fill="#42454C"></path>
  <path d="M142.504 26.829H141.153V25.0936H140.483V29.9482H142.504C143.602 29.9482 144.294 29.3771 144.294 28.3886C144.294 27.4001 143.602 26.829 142.504 26.829ZM142.504 29.3331H141.153V27.444H142.504C143.229 27.444 143.624 27.7735 143.624 28.3886C143.624 29.0036 143.229 29.3331 142.504 29.3331Z" fill="#42454C"></path>
  <path d="M148.885 25.0936V27.1914H146.183V25.0936H145.513V29.9482H146.183V27.8065H148.885V29.9482H149.555V25.0936H148.885Z" fill="#42454C"></path>
  <path d="M153.294 26.829H151.943V25.0936H151.273V29.9482H153.294C154.392 29.9482 155.084 29.3771 155.084 28.3886C155.084 27.4001 154.392 26.829 153.294 26.829ZM156.029 25.0936V29.9482H156.699V25.0936H156.029ZM153.294 29.3331H151.943V27.444H153.294C154.019 27.444 154.414 27.7735 154.414 28.3886C154.414 29.0036 154.019 29.3331 153.294 29.3331Z" fill="#42454C"></path>
  <path d="M157.845 29.9482H158.592L159.602 28.5423C159.756 28.3337 159.877 28.136 160.031 27.8833C160.173 28.136 160.294 28.3227 160.448 28.5314L161.448 29.9482H162.216V29.9262L160.415 27.3891L162.041 25.1156V25.0936H161.294L160.426 26.3018C160.305 26.4775 160.163 26.6862 160.031 26.9058C159.899 26.6752 159.778 26.4885 159.646 26.3127L158.79 25.0936H158.021V25.1156L159.646 27.3891L157.845 29.9262V29.9482Z" fill="#42454C"></path>
  <path d="M169.737 29.3331V25.0936H166.541L166.288 27.6966C166.222 28.3886 166.134 28.8389 165.827 29.3331H165.19V31.2332H165.838V29.9482H169.781V31.2332H170.429V29.3331H169.737ZM167.145 25.7197H169.067V29.3331H166.563C166.793 28.8828 166.87 28.4655 166.936 27.8065L167.145 25.7197Z" fill="#42454C"></path>
  <path d="M173.601 30.069C175.083 30.069 176.127 29.0146 176.127 27.5209C176.127 26.0272 175.083 24.9728 173.601 24.9728C172.14 24.9728 171.097 26.0272 171.097 27.5209C171.097 29.0146 172.14 30.069 173.601 30.069ZM173.601 29.443C172.524 29.443 171.777 28.6522 171.777 27.5209C171.777 26.4006 172.524 25.5988 173.601 25.5988C174.699 25.5988 175.446 26.4006 175.446 27.5209C175.446 28.6522 174.688 29.443 173.601 29.443Z" fill="#42454C"></path>
  <path d="M182.18 25.0936H181.971L180.192 27.4001C180.093 27.5319 179.983 27.6637 179.884 27.8174C179.785 27.6637 179.676 27.5319 179.577 27.4001L177.786 25.0936H177.578L177.127 29.9482H177.786L178.05 27.1475C178.072 26.9168 178.094 26.7081 178.105 26.4775C178.259 26.6972 178.434 26.9278 178.61 27.1585L179.796 28.7181H179.961L181.202 27.0816C181.356 26.8729 181.51 26.6862 181.642 26.4885C181.653 26.6752 181.675 26.8729 181.696 27.0816L181.971 29.9482H182.641L182.18 25.0936Z" fill="#42454C"></path>
  <path d="M186.161 30.069C187.643 30.069 188.687 29.0146 188.687 27.5209C188.687 26.0272 187.643 24.9728 186.161 24.9728C184.7 24.9728 183.656 26.0272 183.656 27.5209C183.656 29.0146 184.7 30.069 186.161 30.069ZM186.161 29.443C185.084 29.443 184.337 28.6522 184.337 27.5209C184.337 26.4006 185.084 25.5988 186.161 25.5988C187.259 25.5988 188.006 26.4006 188.006 27.5209C188.006 28.6522 187.248 29.443 186.161 29.443Z" fill="#42454C"></path>
  <path d="M192.99 27.455C193.407 27.2573 193.66 26.9168 193.66 26.3786C193.66 25.5988 193.067 25.0936 192.133 25.0936H190.046V29.9482H192.32C193.265 29.9482 193.891 29.4649 193.891 28.6192C193.891 28.0042 193.539 27.6088 192.99 27.455ZM192.122 25.6977C192.726 25.6977 192.99 26.0382 192.99 26.4336C192.99 26.8399 192.726 27.1804 192.122 27.1804H190.716V25.6977H192.122ZM192.309 29.3441H190.716V27.7845H192.309C192.935 27.7845 193.221 28.125 193.221 28.5643C193.221 29.0146 192.935 29.3441 192.309 29.3441Z" fill="#42454C"></path>
  <path d="M201.581 25.0936L198.945 27.9822C198.758 28.1909 198.571 28.3996 198.396 28.6192C198.407 28.4105 198.418 28.1909 198.418 27.9712V25.0936H197.748V29.9482H197.989L200.702 26.9717C200.867 26.796 201.021 26.6093 201.163 26.4226C201.152 26.6093 201.152 26.796 201.152 26.9827V29.9482H201.822V25.0936H201.581Z" fill="#42454C"></path>
  <path d="M208.477 25.0387C207.741 25.0387 207.027 25.3352 206.533 26.0492C206.621 25.0058 207.016 24.16 207.664 23.7537C208.554 23.1825 209.377 23.2375 210.256 22.6773L209.982 22.0732C209.18 22.6004 208.356 22.5126 207.302 23.2155C206.258 23.9184 205.874 25.2034 205.874 26.4006V27.0376C205.874 29.1135 206.972 30.047 208.356 30.047C209.729 30.047 210.838 29.1903 210.838 27.5209C210.838 25.8954 209.696 25.0387 208.477 25.0387ZM208.356 29.421C207.346 29.421 206.588 28.7181 206.588 27.5319C206.588 26.4555 207.346 25.6647 208.389 25.6647C209.498 25.6647 210.168 26.4775 210.168 27.5209C210.168 28.5863 209.531 29.421 208.356 29.421Z" fill="#42454C"></path>
  <path d="M213.942 25.0387C213.327 25.0387 212.701 25.1925 212.042 25.5L212.273 26.0711C212.811 25.8185 213.349 25.6647 213.876 25.6647C214.623 25.6647 215.106 26.0052 215.106 26.6862V27.0157C214.854 26.9827 214.579 26.9717 214.217 26.9717C212.789 26.9717 211.789 27.5978 211.789 28.6851C211.789 29.5198 212.393 30.036 213.338 30.036C214.195 30.036 214.821 29.6516 215.172 29.0695L215.293 29.9482H215.787V26.7191C215.787 25.6208 215.051 25.0387 213.942 25.0387ZM213.448 29.41C212.844 29.41 212.492 29.1244 212.492 28.6412C212.492 27.9273 213.173 27.5319 214.315 27.5319C214.634 27.5319 214.843 27.5429 215.106 27.5758C215.073 28.6851 214.447 29.41 213.448 29.41Z" fill="#42454C"></path>
  <path d="M220.801 25.0936V27.1914H218.099V25.0936H217.429V29.9482H218.099V27.8065H220.801V29.9482H221.471V25.0936H220.801Z" fill="#42454C"></path>
  <path d="M225.21 26.829H223.859V25.0936H223.189V29.9482H225.21C226.308 29.9482 227 29.3771 227 28.3886C227 27.4001 226.308 26.829 225.21 26.829ZM225.21 29.3331H223.859V27.444H225.21C225.935 27.444 226.33 27.7735 226.33 28.3886C226.33 29.0036 225.935 29.3331 225.21 29.3331Z" fill="#42454C"></path>
</svg>
